<?xml version="1.0" encoding="utf-8"?>
<!-- Generator: Adobe Illustrator 18.1.1, SVG Export Plug-In . SVG Version: 6.00 Build 0)  -->
<!DOCTYPE svg PUBLIC "-//W3C//DTD SVG 1.1//EN" "http://www.w3.org/Graphics/SVG/1.1/DTD/svg11.dtd">
<svg version="1.1" id="Layer_1" xmlns="http://www.w3.org/2000/svg" xmlns:xlink="http://www.w3.org/1999/xlink" x="0px" y="0px"
	 width="256px" height="256px" viewBox="0 0 256 256" style="enable-background:new 0 0 256 256;" xml:space="preserve">
<style type="text/css">
	.st0{fill:#512200;stroke:#512200;stroke-width:7.8021;stroke-miterlimit:10;}
</style>
<g>
	<g>
		<path class="st0" d="M205.6,111.1c2.5,10,3.9,20.6,3.9,31.7c0,1.3,0,2.6-0.1,3.8l12.6,5.1l10.4-8.9l8,9.7l-15.6,13.3l-16.3-6.8
			c-1.9,14.8-6.2,28.6-12.5,40.7l2.2-3.1l12.2,7.2l11.6-7.2l6.5,10.8l-17.4,10.8L192,206.6c-15,24-38.2,39.4-64.3,39.4
			c-26,0-49.2-15.4-64.1-39.3l-18.9,11.4l-17.4-10.8l6.5-10.8l11.6,7.2l12.2-7.2l0.9,1.2c-5.7-11.5-9.8-24.5-11.5-38.5l-15.8,6.6
			l-15.6-13.3l8-9.7l10.4,8.9l12.1-4.8c0-1.3-0.1-2.7-0.1-4c0-11.1,1.4-21.7,4-31.7l-20.4-0.8l-8.9-18.7l11.2-5.5l5.9,12.5l14.1,0.7
			l0.2,4.2c8.4-25.9,25-46.4,45.6-56.7c0.4-7.9,6.8-14.3,14.6-14.3h34.2c8.1,0,14.7,6.7,14.7,15c0,0.4-0.1,0.7-0.1,1.1
			c19.4,11,34.8,31.3,42.6,56.3l0.3-5.6l14.1-0.7l5.9-12.5l11.2,5.5l-8.9,18.7L205.6,111.1z"/>
		<polygon class="st0" points="169.1,19.2 167.5,23.6 165,24.8 159.8,26.3 155.4,29 149.3,32.5 149.3,29 156.2,23.9 161.3,22.3 
			165.7,19.2 168.3,14 173.2,12.2 171.8,17.1 		"/>
		<polygon class="st0" points="99.1,26.3 93.9,24.8 91.4,23.6 89.8,19.2 87,17.1 85.7,12.2 90.6,14 93.2,19.2 97.6,22.3 102.7,23.9 
			109.6,29 109.6,32.5 103.5,29 		"/>
	</g>
</g>
<g>
</g>
<g>
</g>
<g>
</g>
<g>
</g>
<g>
</g>
<g>
</g>
<g>
</g>
<g>
</g>
<g>
</g>
<g>
</g>
<g>
</g>
<g>
</g>
<g>
</g>
<g>
</g>
<g>
</g>
</svg>
