<svg xmlns="http://www.w3.org/2000/svg" width="256" height="256" viewBox="0 0 256 256"><style type="text/css">.st0{fill:#512200;stroke:#512200;stroke-width:7.8021;stroke-miterlimit:10;}</style><path class="st0" d="M205.6 111.1c2.5 10 3.9 20.6 3.9 31.7 0 1.3 0 2.6-.1 3.8l12.6 5.1 10.4-8.9 8 9.7-15.6 13.3-16.3-6.8c-1.9 14.8-6.2 28.6-12.5 40.7l2.2-3.1 12.2 7.2 11.6-7.2 6.5 10.8-17.4 10.8-19.1-11.6c-15 24-38.2 39.4-64.3 39.4-26 0-49.2-15.4-64.1-39.3l-18.9 11.4-17.4-10.8 6.5-10.8 11.6 7.2 12.2-7.2.9 1.2c-5.7-11.5-9.8-24.5-11.5-38.5l-15.8 6.6-15.6-13.3 8-9.7 10.4 8.9 12.1-4.8-.1-4c0-11.1 1.4-21.7 4-31.7l-20.4-.8-8.9-18.7 11.2-5.5 5.9 12.5 14.1.7.2 4.2c8.4-25.9 25-46.4 45.6-56.7.4-7.9 6.8-14.3 14.6-14.3h34.2c8.1 0 14.7 6.7 14.7 15l-.1 1.1c19.4 11 34.8 31.3 42.6 56.3l.3-5.6 14.1-.7 5.9-12.5 11.2 5.5-8.9 18.7-20.7.7zM169.1 19.2l-1.6 4.4-2.5 1.2-5.2 1.5-4.4 2.7-6.1 3.5v-3.5l6.9-5.1 5.1-1.6 4.4-3.1 2.6-5.2 4.9-1.8-1.4 4.9zM99.1 26.3l-5.2-1.5-2.5-1.2-1.6-4.4-2.8-2.1-1.3-4.9 4.9 1.8 2.6 5.2 4.4 3.1 5.1 1.6 6.9 5.1v3.5l-6.1-3.5z"/></svg>